<svg xmlns="http://www.w3.org/2000/svg" width="1200" height="630" viewBox="0 0 1200 630" fill="none">
  <defs>
    <linearGradient id="bg" x1="0" y1="0" x2="1200" y2="630" gradientUnits="userSpaceOnUse">
      <stop offset="0%" stop-color="#06141A"/>
      <stop offset="50%" stop-color="#0D1B21"/>
      <stop offset="100%" stop-color="#13262E"/>
    </linearGradient>
    <linearGradient id="accent" x1="300" y1="200" x2="900" y2="500" gradientUnits="userSpaceOnUse">
      <stop offset="0%" stop-color="#28D99E"/>
      <stop offset="100%" stop-color="#49FFB7"/>
    </linearGradient>
    <linearGradient id="line" x1="0" y1="0" x2="1200" y2="0" gradientUnits="userSpaceOnUse">
      <stop offset="0%" stop-color="#28D99E" stop-opacity="0"/>
      <stop offset="20%" stop-color="#28D99E"/>
      <stop offset="80%" stop-color="#49FFB7"/>
      <stop offset="100%" stop-color="#49FFB7" stop-opacity="0"/>
    </linearGradient>
  </defs>
  <!-- Background -->
  <rect width="1200" height="630" fill="url(#bg)"/>
  <!-- Decorative grid lines -->
  <line x1="0" y1="420" x2="1200" y2="420" stroke="#1F3A43" stroke-width="1"/>
  <line x1="0" y1="210" x2="1200" y2="210" stroke="#1F3A43" stroke-width="1"/>
  <!-- Accent line -->
  <rect x="0" y="610" width="1200" height="4" fill="url(#line)"/>
  <!-- Logo Mark -->
  <rect x="100" y="180" width="90" height="90" rx="20" fill="#13262E" stroke="url(#accent)" stroke-width="2"/>
  <text x="145" y="244" font-family="Arial, Helvetica, sans-serif" font-size="52" font-weight="800" fill="url(#accent)" text-anchor="middle">M</text>
  <!-- Title -->
  <text x="210" y="238" font-family="Arial, Helvetica, sans-serif" font-size="56" font-weight="800" fill="#E6F3F1">Mamba</text>
  <!-- Tagline -->
  <text x="105" y="330" font-family="Arial, Helvetica, sans-serif" font-size="28" fill="#8CAFB3">TikTok Shop Analytics &amp; Management Platform</text>
  <!-- Feature pills -->
  <rect x="105" y="380" width="160" height="40" rx="20" fill="#28D99E20" stroke="#28D99E50" stroke-width="1"/>
  <text x="185" y="406" font-family="Arial, Helvetica, sans-serif" font-size="16" fill="#28D99E" text-anchor="middle">P&amp;L Analytics</text>
  <rect x="285" y="380" width="200" height="40" rx="20" fill="#49FFB720" stroke="#49FFB750" stroke-width="1"/>
  <text x="385" y="406" font-family="Arial, Helvetica, sans-serif" font-size="16" fill="#49FFB7" text-anchor="middle">Product Management</text>
  <rect x="505" y="380" width="180" height="40" rx="20" fill="#1FA97C20" stroke="#1FA97C50" stroke-width="1"/>
  <text x="595" y="406" font-family="Arial, Helvetica, sans-serif" font-size="16" fill="#1FA97C" text-anchor="middle">Order Tracking</text>
  <rect x="705" y="380" width="180" height="40" rx="20" fill="#22C55E20" stroke="#22C55E50" stroke-width="1"/>
  <text x="795" y="406" font-family="Arial, Helvetica, sans-serif" font-size="16" fill="#22C55E" text-anchor="middle">Real-Time Sync</text>
  <!-- Decorative chart visualization -->
  <polyline points="100,540 200,510 300,520 400,490 500,500 600,460 700,470 800,430 900,440 1000,400 1100,410" stroke="url(#accent)" stroke-width="3" fill="none" stroke-linecap="round" stroke-linejoin="round"/>
  <polyline points="100,540 200,510 300,520 400,490 500,500 600,460 700,470 800,430 900,440 1000,400 1100,410 1100,580 100,580" fill="url(#accent)" fill-opacity="0.05"/>
</svg>
